<?xml version="1.0" encoding="utf-8"?>
<!-- Generator: Adobe Illustrator 16.0.0, SVG Export Plug-In . SVG Version: 6.00 Build 0)  -->
<!DOCTYPE svg PUBLIC "-//W3C//DTD SVG 1.1//EN" "http://www.w3.org/Graphics/SVG/1.1/DTD/svg11.dtd">
<svg version="1.1" id="Capa_1" xmlns="http://www.w3.org/2000/svg" xmlns:xlink="http://www.w3.org/1999/xlink" x="0px" y="0px"
	 width="512px" height="512px" viewBox="0 0 512 512" enable-background="new 0 0 512 512" xml:space="preserve">
<path fill="#A3A3A3" d="M255,361.909c-122.643,0-222.409-61.787-222.409-137.682c0-12.667,2.796-25.185,8.367-37.45
	c-18.895-18.025-29.549-42.511-29.549-68.459C11.409,65.788,54.197,23,106.727,23c42.534,0,79.347,28.086,91.23,68.121
	c37.323-6.08,76.806-6.08,114.128,0C323.969,51.045,360.781,23,403.314,23c52.532,0,95.317,42.788,95.317,95.318
	c0,25.99-10.652,50.476-29.547,68.459c5.571,12.201,8.365,24.783,8.365,37.45C477.409,300.122,377.644,361.909,255,361.909z
	 M106.727,44.182c-40.88,0-74.136,33.256-74.136,74.137c0,22.346,10.209,43.338,28.087,57.635c4.003,3.199,5.126,8.854,2.647,13.409
	c-6.375,11.459-9.552,23.194-9.552,34.865c0,64.265,90.277,116.5,201.227,116.5s201.228-52.235,201.228-116.5
	c0-11.692-3.178-23.405-9.553-34.865c-2.479-4.554-1.357-10.167,2.647-13.409c17.877-14.276,28.087-35.289,28.087-57.635
	c0-40.881-33.256-74.137-74.137-74.137c-35.818,0-66.447,25.651-72.822,60.983c-0.466,2.775-2.162,5.253-4.429,6.884
	c-2.309,1.589-5.209,2.203-7.985,1.631c-41.027-7.901-85.171-7.901-126.115,0c-2.732,0.592-5.677-0.022-7.985-1.631
	c-2.31-1.631-3.961-4.066-4.428-6.884C173.175,69.833,142.546,44.182,106.727,44.182L106.727,44.182z"/>
<path fill="#A3A3A3" d="M255,319.546c-93.052,0-165.917-45.583-165.917-103.792c0-5.804,4.746-10.591,10.591-10.591
	c5.847,0,10.591,4.787,10.591,10.591c0,44.78,66.278,82.609,144.735,82.609c78.457,0,144.735-37.829,144.735-82.609
	c0-5.804,4.745-10.591,10.591-10.591s10.591,4.787,10.591,10.591C420.917,273.963,348.051,319.546,255,319.546z"/>
<path fill="#A3A3A3" d="M106.727,213.636c-52.53,0-95.318-42.745-95.318-95.318C11.409,65.788,54.197,23,106.727,23
	c52.531,0,95.318,42.788,95.318,95.318C202.045,170.891,159.258,213.636,106.727,213.636z M106.727,44.182
	c-40.88,0-74.136,33.256-74.136,74.137c0,40.88,33.256,74.136,74.136,74.136c40.881,0,74.137-33.256,74.137-74.136
	C180.864,77.438,147.608,44.182,106.727,44.182z"/>
<path fill="#A3A3A3" d="M106.727,150.091c-17.517,0-31.772-14.255-31.772-31.772c0-17.518,14.255-31.773,31.772-31.773
	c17.518,0,31.773,14.255,31.773,31.773C138.5,135.835,124.245,150.091,106.727,150.091z M106.727,107.728
	c-5.825,0-10.591,4.766-10.591,10.591c0,5.867,4.766,10.591,10.591,10.591c5.825,0,10.591-4.724,10.591-10.591
	C117.318,112.493,112.552,107.728,106.727,107.728z"/>
<path fill="#A3A3A3" d="M403.272,213.636c-52.53,0-95.318-42.745-95.318-95.318c0-52.531,42.788-95.318,95.318-95.318
	s95.318,42.788,95.318,95.318C498.591,170.891,455.803,213.636,403.272,213.636z M403.272,44.182
	c-40.88,0-74.136,33.256-74.136,74.137c0,40.88,33.256,74.136,74.136,74.136c40.881,0,74.137-33.256,74.137-74.136
	C477.409,77.438,444.153,44.182,403.272,44.182z"/>
<path fill="#A3A3A3" d="M403.272,150.091c-17.517,0-31.772-14.255-31.772-31.772c0-17.518,14.256-31.773,31.772-31.773
	s31.773,14.255,31.773,31.773C435.046,135.835,420.789,150.091,403.272,150.091z M403.272,107.728
	c-5.825,0-10.591,4.766-10.591,10.591c0,5.867,4.766,10.591,10.591,10.591s10.591-4.724,10.591-10.591
	C413.863,112.493,409.098,107.728,403.272,107.728z"/>
<path fill="#A3A3A3" d="M11.409,489c-5.825,0-10.591-4.725-10.591-10.591v-86.931c0-46.091,17.178-89.979,49.65-126.856
	c3.897-4.406,10.548-4.83,14.934-0.954c4.405,3.877,4.85,10.591,0.953,14.975C37.357,311.603,22,350.619,22,391.479v86.931
	C22,484.275,17.234,489,11.409,489z"/>
<path fill="#A3A3A3" d="M498.591,489c-5.825,0-10.591-4.725-10.591-10.591v-86.931c0-40.922-15.356-79.876-44.333-112.857
	c-3.876-4.426-3.432-11.1,0.951-14.996c4.386-3.897,11.059-3.43,14.956,0.953c32.431,36.963,49.607,80.787,49.607,126.88v86.931
	C509.182,484.275,504.416,489,498.591,489z"/>
</svg>
