<?xml version="1.0" encoding="utf-8"?>
<!-- Generator: Adobe Illustrator 16.0.0, SVG Export Plug-In . SVG Version: 6.00 Build 0)  -->
<!DOCTYPE svg PUBLIC "-//W3C//DTD SVG 1.1//EN" "http://www.w3.org/Graphics/SVG/1.1/DTD/svg11.dtd">
<svg version="1.1" id="Capa_1" xmlns="http://www.w3.org/2000/svg" xmlns:xlink="http://www.w3.org/1999/xlink" x="0px" y="0px"
	 width="512px" height="512px" viewBox="0 0 512 512" enable-background="new 0 0 512 512" xml:space="preserve">
<g>
	<path fill="#A3A3A3" d="M257.809,507.66h-3.254c-148.919,0-252.963-75.648-252.963-183.904c0-99.195,10.23-214.299,86.199-316.003
		c3.467-4.637,10.018-5.679,14.675-2.233l16.505,11.634c42.579,29.69,86.455,60.444,93.665,100.619
		c33.157-3.211,52.426-3.467,87.201,0.32c7.251-39.496,50.021-69.122,91.494-97.855c6.701-4.615,13.398-9.272,19.885-13.803
		c4.703-3.36,11.208-2.317,14.655,2.233c75.117,100.577,85.496,210.895,85.496,315.044
		C511.346,432.012,407.091,507.66,257.809,507.66z M98.744,28.787C32.218,123.026,22.86,226.091,22.86,323.712
		c0,95.75,95.26,162.616,231.695,162.616h3.254c136.797,0,232.333-66.91,232.333-162.616c0-97.578-9.314-200.601-75.163-293.947
		c-3.806,2.659-7.636,5.317-11.484,7.976c-41.047,28.351-83.412,57.659-83.412,91.603c0,3.083-1.342,6.188-3.572,8.251
		c-2.276,2.042-5.255,3.169-8.36,2.872c-43.663-5.317-61.124-4.935-103.958-0.447c-2.957,0.34-5.977-0.617-8.209-2.68
		c-2.234-2.021-3.531-4.87-3.531-7.933c0-35.028-43.557-65.548-85.625-95.004L98.744,28.787L98.744,28.787z"/>
	<path fill="#A3A3A3" d="M164.293,286.131c-18.163,0-32.945-14.59-32.945-32.412c0-17.929,14.761-32.434,32.945-32.434
		c18.163,0,32.944,14.61,32.944,32.434C197.237,271.541,182.477,286.131,164.293,286.131z M164.293,242.468
		c-6.465,0-11.677,4.999-11.677,11.145c0,6.168,5.211,11.123,11.677,11.123c6.444,0,11.676-4.976,11.676-11.123
		C175.969,247.467,170.716,242.468,164.293,242.468z"/>
	<path fill="#A3A3A3" d="M346.178,286.131c-18.161,0-32.945-14.59-32.945-32.412c0-17.929,14.784-32.434,32.945-32.434
		c18.164,0,32.965,14.61,32.965,32.434C379.102,271.541,364.342,286.131,346.178,286.131z M346.178,242.468
		c-6.444,0-11.678,4.999-11.678,11.145c0,6.168,5.233,11.123,11.678,11.123c6.467,0,11.696-4.976,11.696-11.123
		C357.833,247.487,352.621,242.468,346.178,242.468z"/>
	<path fill="#A3A3A3" d="M247.174,372.14c-3.063,0-5.912-1.341-7.976-3.571l-49.512-55.896c-2.765-3.103-3.424-7.59-1.745-11.418
		c1.724-3.851,5.53-6.274,9.699-6.274h96.175c4.125,0,7.889,2.382,9.633,6.145c1.745,3.743,1.193,8.146-1.466,11.296l-46.685,55.913
		c-1.978,2.339-4.892,3.786-7.997,3.828C247.26,372.14,247.217,372.14,247.174,372.14z M221.292,316.248l25.649,28.987
		l24.245-28.987H221.292z"/>
	<path fill="#A3A3A3" d="M245.601,433.222c-5.871,0-10.634-4.741-10.634-10.634v-63.805c0-5.828,4.763-10.634,10.634-10.634
		c5.827,0,10.634,4.806,10.634,10.634v63.805C256.235,428.48,251.471,433.222,245.601,433.222z"/>
	<path fill="#A3A3A3" d="M301.534,350.212c-5.018,0-9.483-3.531-10.442-8.613c-1.085-5.764,2.702-11.313,8.444-12.421l112.21-21.183
		c5.767-1.084,11.337,2.765,12.422,8.443c1.105,5.764-2.7,11.336-8.421,12.421l-112.232,21.182
		C302.876,350.17,302.195,350.212,301.534,350.212L301.534,350.212z"/>
	<path fill="#A3A3A3" d="M301.534,393.832c-5.018,0-9.483-3.53-10.442-8.634c-1.085-5.764,2.702-11.336,8.486-12.421l112.19-21.141
		c5.765-1.085,11.335,2.702,12.399,8.424c1.105,5.762-2.7,11.378-8.443,12.42l-112.233,21.14
		C302.876,393.791,302.195,393.832,301.534,393.832z"/>
	<path fill="#A3A3A3" d="M190.729,350.212c-0.659,0-1.339-0.042-1.999-0.171l-112.21-21.182c-5.763-1.085-9.57-6.657-8.464-12.421
		c1.105-5.764,6.72-9.548,12.42-8.422l112.232,21.161c5.763,1.107,9.571,6.657,8.444,12.421
		C200.193,346.681,195.769,350.212,190.729,350.212z"/>
	<path fill="#A3A3A3" d="M190.729,393.832c-0.659,0-1.339-0.041-1.999-0.17l-112.21-21.14c-5.763-1.084-9.57-6.656-8.486-12.42
		c1.106-5.764,6.657-9.592,12.399-8.466l112.232,21.141c5.764,1.085,9.57,6.657,8.464,12.421
		C200.193,390.302,195.769,393.832,190.729,393.832z"/>
</g>
</svg>
