<?xml version="1.0" encoding="utf-8"?>
<!-- Generator: Adobe Illustrator 16.0.0, SVG Export Plug-In . SVG Version: 6.00 Build 0)  -->
<!DOCTYPE svg PUBLIC "-//W3C//DTD SVG 1.1//EN" "http://www.w3.org/Graphics/SVG/1.1/DTD/svg11.dtd">
<svg version="1.1" id="Capa_1" xmlns="http://www.w3.org/2000/svg" xmlns:xlink="http://www.w3.org/1999/xlink" x="0px" y="0px"
	 width="512px" height="512px" viewBox="0 0 512 512" enable-background="new 0 0 512 512" xml:space="preserve">
<g>
	<path fill="#FFFFFF" d="M256,509.52c-87.807,0-143.318-255.73-143.318-319.732c0-78.851,64.297-143.042,143.318-143.042
		c79.021,0,143.316,64.191,143.316,143.042C399.316,253.789,343.808,509.52,256,509.52z M256,67.845
		c-67.36,0-122.195,54.708-122.195,121.921c0,79.063,60.77,298.61,122.195,298.61s122.194-219.567,122.194-298.61
		C378.194,122.595,323.361,67.845,256,67.845z"/>
	<path fill="#FFFFFF" d="M256,509.52c-21.144,0-41.822-14.976-61.572-44.461c-2.493-3.763-2.324-8.66,0.401-12.253
		c14.722-19.475,37.049-30.647,61.171-30.647s46.449,11.131,61.171,30.647c2.727,3.593,2.896,8.49,0.402,12.253
		C297.822,494.544,277.145,509.52,256,509.52z M216.585,459.799c10.477,14.278,24.692,28.599,39.415,28.599
		c14.725,0,28.938-14.319,39.415-28.599C274.544,438.633,237.455,438.633,216.585,459.799z"/>
	<path fill="#FFFFFF" d="M376.461,288.134c-3.061,0-5.955-1.331-7.982-3.633c-2.196-2.515-3.084-5.894-2.322-9.21
		c7.645-35.042,12.039-66.22,12.039-85.568c0-62.798-49.067-116.069-111.719-121.393c-3.971-0.359-7.478-2.915-8.912-6.611
		c-1.479-3.718-0.762-7.963,1.901-10.92c27.224-30.712,66.301-48.33,107.131-48.33c79.041,0,143.319,64.192,143.319,143.065
		c0,74.436-58.342,137.085-132.714,142.493C377.012,288.134,376.717,288.134,376.461,288.134z M289.9,50.904
		c62.841,15.398,109.416,72.662,109.416,138.903c0,17.975-3.399,44.907-9.463,75.386c56.548-10.898,99.004-60.896,99.004-119.596
		C488.836,78.343,434.02,23.656,366.64,23.656C338.568,23.677,311.509,33.416,289.9,50.904L289.9,50.904z"/>
	<path fill="#FFFFFF" d="M135.538,288.134c-0.253,0-0.486,0-0.739-0.044C60.404,282.684,2.084,220.055,2.084,145.619
		c0-78.873,64.277-143.065,143.318-143.065c40.914,0,79.907,17.617,107.134,48.33c2.662,2.957,3.38,7.202,1.901,10.92
		c-1.436,3.717-4.9,6.274-8.913,6.611c-62.65,5.345-111.718,58.637-111.718,121.414c0,19.349,4.394,50.547,12.04,85.526
		c0.676,3.209-0.19,6.61-2.324,9.252C141.494,286.823,138.558,288.134,135.538,288.134z M145.402,23.677
		c-67.34,0-122.195,54.708-122.195,121.942c0,58.636,42.478,108.697,99.023,119.595c-6.063-30.5-9.463-57.494-9.463-75.406
		c0-66.22,46.576-123.525,109.457-138.903C200.49,33.416,173.432,23.677,145.402,23.677z"/>
	<path fill="#FFFFFF" d="M203.193,234.904c-17.469,0-31.684-14.215-31.684-31.684c0-17.467,14.215-31.684,31.684-31.684
		c17.468,0,31.684,14.217,31.684,31.684C234.877,220.688,220.662,234.904,203.193,234.904z M203.193,192.659
		c-5.809,0-10.562,4.752-10.562,10.561c0,5.809,4.753,10.562,10.562,10.562c5.788,0,10.561-4.752,10.561-10.562
		C213.754,197.411,208.981,192.659,203.193,192.659z"/>
	<path fill="#FFFFFF" d="M308.807,235.876c-18.039,0-32.699-14.618-32.699-32.657c0-17.996,14.66-32.634,32.699-32.634
		s32.699,14.638,32.699,32.634C341.506,221.238,326.846,235.875,308.807,235.876L308.807,235.876z M308.807,191.729
		c-6.378,0-11.576,5.175-11.576,11.512c0,6.336,5.198,11.533,11.576,11.533s11.576-5.175,11.576-11.533
		C320.383,196.883,315.185,191.729,308.807,191.729z"/>
	<path fill="#FFFFFF" d="M467.227,340.538H319.368c-5.81,0-10.563-4.794-10.563-10.562c0-5.81,4.753-10.563,10.563-10.563h147.857
		c5.811,0,10.563,4.753,10.563,10.563C477.788,335.744,473.036,340.538,467.227,340.538z"/>
	<path fill="#FFFFFF" d="M446.104,382.783H319.368c-5.81,0-10.563-4.795-10.563-10.563c0-5.809,4.753-10.561,10.563-10.561h126.735
		c5.81,0,10.563,4.752,10.563,10.561C456.666,377.989,451.913,382.783,446.104,382.783z"/>
	<path fill="#FFFFFF" d="M424.981,425.028H319.368c-5.81,0-10.563-4.794-10.563-10.562c0-5.81,4.753-10.563,10.563-10.563h105.613
		c5.809,0,10.562,4.753,10.562,10.563C435.543,420.234,430.79,425.028,424.981,425.028z"/>
	<path fill="#FFFFFF" d="M192.632,340.538H44.773c-5.809,0-10.561-4.794-10.561-10.562c0-5.81,4.752-10.563,10.561-10.563h147.859
		c5.788,0,10.562,4.753,10.562,10.563C203.193,335.744,198.42,340.538,192.632,340.538z"/>
	<path fill="#FFFFFF" d="M192.632,382.783H65.896c-5.809,0-10.562-4.795-10.562-10.563c0-5.809,4.752-10.561,10.562-10.561h126.736
		c5.788,0,10.562,4.752,10.562,10.561C203.193,377.989,198.42,382.783,192.632,382.783z"/>
	<path fill="#FFFFFF" d="M192.632,425.028H87.019c-5.809,0-10.562-4.794-10.562-10.562c0-5.81,4.753-10.563,10.562-10.563h105.613
		c5.788,0,10.562,4.753,10.562,10.563C203.193,420.234,198.42,425.028,192.632,425.028z"/>
</g>
</svg>
