<?xml version="1.0" encoding="utf-8"?>
<!-- Generator: Adobe Illustrator 16.0.0, SVG Export Plug-In . SVG Version: 6.00 Build 0)  -->
<!DOCTYPE svg PUBLIC "-//W3C//DTD SVG 1.1//EN" "http://www.w3.org/Graphics/SVG/1.1/DTD/svg11.dtd">
<svg version="1.1" id="Livello_1" xmlns="http://www.w3.org/2000/svg" xmlns:xlink="http://www.w3.org/1999/xlink" x="0px" y="0px"
	 width="512px" height="512px" viewBox="0 0 512 512" enable-background="new 0 0 512 512" xml:space="preserve">
<path fill="#A3A3A3" d="M410.637,216.945c15.865,0,30.512,9.154,38.445,23.188c2.439,4.883,8.541,7.324,13.422,6.104
	c5.494-1.221,9.156-6.104,9.156-11.595V105.271c0-6.713-5.492-12.206-12.205-12.206H367.92c3.049-7.933,4.881-16.476,4.881-25.63
	C373.412,30.212,342.9-0.3,305.674-0.3c-37.834,0-67.735,30.512-67.735,67.736c0,9.154,1.83,17.697,4.882,25.63h-89.095
	c-6.713,0-12.204,5.493-12.204,12.206v98.858c-10.375-6.102-22.579-9.765-34.784-9.765C69.512,194.365,39,224.877,39,262.104
	c0,37.224,30.512,67.125,67.737,67.125c12.815,0,24.41-3.663,34.784-9.764v89.706c0,6.711,5.491,12.204,12.204,12.204h92.147
	c-3.052,7.322-4.272,15.256-4.272,23.189c0,37.224,30.514,67.735,67.736,67.735c37.834,0,68.348-30.512,68.348-67.735
	c0-7.934-1.223-15.867-4.271-23.189h86.654c6.711,0,12.205-5.493,12.205-12.204v-57.364c0-6.712-5.494-12.204-12.205-12.204
	c-6.715,0-12.207,5.492-12.207,12.204v45.157h-95.807c-4.883,0-9.152,3.054-10.984,7.325c-1.83,4.271-1.221,9.152,1.832,12.813
	c4.881,5.492,10.373,14.647,10.373,27.463c0,23.798-19.525,43.327-43.328,43.327c-23.799,0-43.325-19.529-43.325-43.327
	c0-12.815,5.493-21.971,10.374-27.463c3.05-3.66,3.66-8.542,1.83-12.813c-1.83-4.271-6.101-7.325-10.984-7.325H165.931V290.783
	c0-5.493-3.663-10.375-8.544-11.594c-5.491-1.22-10.983,0.608-13.424,5.492c-7.934,12.815-21.969,20.746-36.614,20.746
	c-23.8,0-43.327-19.526-43.327-43.324c0-23.8,19.527-43.329,43.327-43.329c15.256,0,28.681,7.934,36.614,20.749
	c3.05,4.882,8.543,6.713,13.424,5.493c5.493-1.22,8.544-6.102,8.544-11.595V117.476h98.856c4.883,0,9.156-3.051,10.986-7.322
	c1.832-4.272,1.221-9.765-2.441-13.426c-7.934-7.933-11.594-18.307-11.594-29.292c0-23.799,19.527-43.327,43.324-43.327
	c23.801,0,43.33,19.528,43.33,43.327c0,10.985-4.273,21.359-11.596,29.292c-3.049,3.661-4.271,8.544-2.441,13.426
	c1.83,4.271,6.102,7.322,10.982,7.322h101.91v86.043c-10.982-7.322-23.797-10.984-37.221-10.984
	c-37.227,0-67.738,30.512-67.738,67.735c0,37.227,30.512,67.738,67.738,67.738c24.408,0,46.986-13.426,59.191-34.782
	c0,0,0,0,0-0.611c1.223-1.832,1.832-4.271,1.832-6.714c0-3.05-1.221-6.104-3.664-8.542c-4.883-4.271-12.813-4.271-17.084,0
	c-1.221,1.219-1.832,2.438-2.443,3.66c0,0,0,0,0,0.61c-7.932,14.034-21.967,22.579-37.832,22.579
	c-23.803,0-43.33-19.527-43.33-43.327C366.697,237.083,386.836,216.945,410.637,216.945z"/>
</svg>
