<?xml version="1.0" encoding="utf-8"?>
<!-- Generator: Adobe Illustrator 16.0.0, SVG Export Plug-In . SVG Version: 6.00 Build 0)  -->
<!DOCTYPE svg PUBLIC "-//W3C//DTD SVG 1.1//EN" "http://www.w3.org/Graphics/SVG/1.1/DTD/svg11.dtd">
<svg version="1.1" id="Livello_1" xmlns="http://www.w3.org/2000/svg" xmlns:xlink="http://www.w3.org/1999/xlink" x="0px" y="0px"
	 width="512px" height="512px" viewBox="0 0 512 512" enable-background="new 0 0 512 512" xml:space="preserve">
<g>
	<ellipse fill="#A3A3A3" cx="167.664" cy="204.422" rx="26.092" ry="25.486"/>
	<ellipse fill="#A3A3A3" cx="347.275" cy="204.422" rx="26.093" ry="25.486"/>
	<path fill="#A3A3A3" d="M512.326,137.674c0-50.364-41.26-91.021-91.625-91.021c-36.409,0-69.176,21.844-83.741,54.611
		c-25.486-9.101-52.788-13.349-80.097-13.349c-27.306,0-54.612,4.248-80.097,13.349c-14.564-32.767-46.724-54.611-83.739-54.611
		c-50.365,0-91.626,40.656-91.626,91.021c0,33.373,18.811,64.32,48.543,80.097c-7.281,18.811-10.922,38.836-10.922,58.861
		c0,103.763,97.695,188.714,217.235,188.714c33.98,0,66.141-6.674,96.48-19.417c6.069-2.426,9.102-9.708,6.069-15.777
		c-2.427-6.066-9.709-9.101-15.777-6.066c-27.306,11.528-56.434,17.596-86.772,17.596c-106.798,0-192.962-73.422-192.962-164.441
		c0-20.632,4.247-40.658,13.349-60.074l5.461-12.137l-12.137-4.247c-26.092-9.71-44.297-34.588-44.297-62.501
		c0-37.015,30.34-66.748,67.356-66.748c29.733,0,56.432,20.632,64.32,49.151l3.641,13.349l12.743-4.854
		c26.093-10.922,54.006-15.776,82.525-15.776c28.519,0,56.432,5.46,82.524,15.776l12.744,4.854l3.642-13.349
		c7.886-29.126,34.587-49.151,64.32-49.151c37.015,0,67.355,29.733,67.355,66.748c0,27.913-17.599,52.792-44.297,62.501
		l-12.136,4.247l5.461,12.137c9.102,19.417,13.348,39.442,13.348,60.074c0,45.511-22.451,89.197-61.895,120.146
		c-5.459,4.247-6.066,11.53-1.817,16.992c4.247,5.459,11.529,6.066,16.987,1.816c44.905-35.799,70.996-86.163,70.996-139.562
		c0-20.024-3.64-39.442-10.921-58.861C493.516,202.602,512.326,171.655,512.326,137.674z"/>
	<path fill="#A3A3A3" d="M203.465,355.514c17.597,3.037,35.801,4.249,54.004,4.249c18.205,0,36.409-1.212,54.004-4.249
		c6.677-1.212,10.924-7.278,10.316-13.954c-1.212-6.675-7.279-10.924-13.955-10.317c-12.743,1.823-25.485,3.035-38.229,3.643
		v-21.844c4.857-3.643,8.496-9.708,8.496-16.385c0-11.531-9.1-20.633-20.632-20.633c-11.529,0-20.631,9.102-20.631,20.633
		c0,6.677,3.035,12.742,8.496,16.385v21.844c-12.743-0.607-25.485-1.819-38.229-3.643c-6.675-1.214-12.743,3.643-13.957,10.317
		C192.542,348.235,196.791,354.302,203.465,355.514z"/>
	<path fill="#A3A3A3" d="M258.078,411.34c68.565,0,123.787-39.441,123.787-88.59c0-49.152-55.825-88.595-123.787-88.595
		c-67.963,0-123.789,40.05-123.789,88.595C134.289,371.291,189.509,411.34,258.078,411.34z M258.078,258.428
		c54.004,0,99.514,29.127,99.514,64.322c0,35.193-45.51,64.318-99.514,64.318c-54.007,0-99.517-29.732-99.517-64.318
		C158.562,288.163,204.071,258.428,258.078,258.428z"/>
</g>
</svg>
