<?xml version="1.0" encoding="utf-8"?>
<!-- Generator: Adobe Illustrator 16.0.0, SVG Export Plug-In . SVG Version: 6.00 Build 0)  -->
<!DOCTYPE svg PUBLIC "-//W3C//DTD SVG 1.1//EN" "http://www.w3.org/Graphics/SVG/1.1/DTD/svg11.dtd">
<svg version="1.1" id="Livello_1" xmlns="http://www.w3.org/2000/svg" xmlns:xlink="http://www.w3.org/1999/xlink" x="0px" y="0px"
	 width="512px" height="512px" viewBox="0 0 512 512" enable-background="new 0 0 512 512" xml:space="preserve">
<g>
	<path fill="#A3A3A3" d="M374.684,141.137c2.437-6.096-1.221-13.411-7.317-15.85c-31.7-10.975-64.62-17.68-98.762-18.899
		c0.61-10.975,5.486-20.118,12.191-24.997c11.585-8.535,18.29-21.947,18.29-36.578c0-24.995-20.118-45.113-45.723-45.113
		c-25.603,0-45.723,20.118-45.723,45.113c0,6.707,5.487,12.192,12.194,12.192c6.706,0,12.193-5.486,12.193-12.192
		c0-11.583,9.754-20.729,21.336-20.729s21.339,9.145,21.339,20.729c0,6.707-3.049,12.802-8.536,17.07
		c-13.41,9.754-20.728,26.215-21.946,44.504c-93.885,3.658-181.674,46.332-241.419,119.49c-4.268,5.485-3.658,12.801,1.828,17.069
		c2.438,1.83,4.877,3.049,7.926,3.049c3.658,0,7.315-1.22,9.145-4.268c13.412-15.85,28.043-30.482,43.285-43.285v98.764
		l-12.194,25.604L21.7,327.078c-4.877,0.611-8.535,3.657-9.755,8.533c-1.219,4.27,0,9.146,3.049,12.806l22.556,21.946l-5.485,31.091
		c-0.61,4.878,1.219,9.146,4.877,12.194c3.657,2.438,8.535,3.046,12.802,1.221l28.044-14.634l28.043,14.634
		c1.829,1.217,3.658,1.217,5.486,1.217c2.439,0,4.877-0.609,7.316-2.438c3.659-2.439,5.487-7.318,4.877-12.194l-5.487-31.091
		l22.557-21.946c3.048-3.052,4.268-7.929,3.048-12.806c-1.219-4.266-5.487-7.922-9.755-8.533l-31.091-4.267l-12.803-25.604V180.155
		c45.723-29.874,98.762-47.553,154.24-49.382V255.75c-15.852-3.048-31.702-3.048-47.553-0.609
		c-5.487,1.219-9.754,6.097-9.754,11.584s3.658,10.974,9.145,12.192c50.601,12.802,81.082,62.792,69.498,114.002
		c-12.192,50.602-61.573,82.304-112.783,71.939c-5.487-1.221-10.974,1.828-13.413,7.316c-2.438,5.484-0.609,11.581,3.657,14.63
		c14.022,10.364,30.483,17.68,47.553,21.946c9.753,2.441,19.508,3.049,29.263,3.049c59.134,0,112.783-40.236,126.193-99.982
		c7.929-33.528,1.831-68.277-16.459-97.541c-14.63-23.777-35.967-41.455-61.571-51.21V130.773
		c31.089,1.219,61.571,7.316,90.836,17.679C365.538,150.892,372.243,147.233,374.684,141.137z M105.831,347.807l-9.755,9.144
		c-3.048,3.049-4.267,6.708-3.658,10.975l2.438,12.803l-11.583-6.097c-1.829-1.219-3.658-1.219-5.486-1.219
		c-1.83,0-3.658,0.61-5.487,1.219l-11.583,6.097l2.438-12.803c0.61-4.267-0.609-7.926-3.658-10.975l-9.754-9.144l13.412-1.83
		c4.268-0.611,7.315-3.047,9.145-6.705l6.096-12.193l6.096,12.193c1.829,3.658,5.487,6.094,9.145,6.705L105.831,347.807z
		 M309.45,327.078c14.634,23.775,19.511,51.821,13.413,79.252c-12.194,53.041-63.402,87.18-115.833,80.475
		c40.237-11.582,72.548-44.505,82.913-87.787c10.361-43.896-4.88-87.181-35.97-115.224
		C276.53,291.109,296.037,306.351,309.45,327.078z"/>
	<path fill="#A3A3A3" d="M509.413,225.878c-19.509-23.777-41.457-43.895-66.451-60.964c-0.608-0.61-1.219-1.221-1.826-1.221
		c-8.539-6.096-17.683-11.582-27.437-16.46c-6.097-3.048-13.41-1.22-16.462,4.878c-3.045,6.096-1.217,13.412,4.877,16.46
		c7.319,3.657,14.024,7.924,20.729,12.802v98.762c-13.41-5.488-29.872-3.047-41.454,7.927c-7.315,7.313-10.975,16.46-10.975,26.214
		s3.659,19.51,10.975,26.212l44.505,44.506c2.437,2.438,5.485,3.659,8.534,3.659c3.045,0,6.097-1.221,8.533-3.659l44.505-44.506
		c7.314-7.313,10.975-16.458,10.975-26.212s-3.66-19.511-10.975-26.214c-10.972-10.974-27.434-13.415-41.455-7.927v-81.692
		c15.85,12.803,30.483,27.435,43.283,43.285c2.441,3.048,6.098,4.268,9.143,4.268c2.442,0,5.488-0.61,7.929-3.049
		C513.071,238.68,513.68,231.364,509.413,225.878z M452.715,304.522c4.88-4.878,13.415-4.878,18.292,0
		c2.437,2.438,3.657,5.484,3.657,9.143c0,3.66-1.221,6.705-3.657,9.146l-35.969,35.97l-35.969-35.97
		c-2.439-2.441-3.657-5.486-3.657-9.146c0-3.658,1.218-6.704,3.657-9.143c2.438-2.438,6.097-3.659,9.144-3.659
		c3.049,0,6.707,1.221,9.143,3.659l9.146,9.143c4.878,4.88,12.192,4.88,17.069,0L452.715,304.522L452.715,304.522z"/>
</g>
</svg>
