<?xml version="1.0" encoding="utf-8"?>
<!-- Generator: Adobe Illustrator 16.0.0, SVG Export Plug-In . SVG Version: 6.00 Build 0)  -->
<!DOCTYPE svg PUBLIC "-//W3C//DTD SVG 1.1//EN" "http://www.w3.org/Graphics/SVG/1.1/DTD/svg11.dtd">
<svg version="1.1" id="Livello_1" xmlns="http://www.w3.org/2000/svg" xmlns:xlink="http://www.w3.org/1999/xlink" x="0px" y="0px"
	 width="512px" height="512px" viewBox="0 0 512 512" enable-background="new 0 0 512 512" xml:space="preserve">
<g>
	<path fill="#A3A3A3" d="M427.162,416.82c-4.237-18.755-18.76-32.067-41.145-38.116c-12.708-3.631-26.018-4.236-39.329-4.84
		c-36.907-1.817-64.137-3.632-66.554-50.219l15.126-4.237c4.234-1.209,7.258-4.237,8.469-8.472c1.212-4.234,0-8.469-3.022-11.494
		l-17.549-17.547c19.36-10.286,36.304-26.623,48.404-47.194c19.969-34.487,24.809-77.445,13.917-118.589
		C324.302,37.457,251.091-11.552,182.116,6.598c-30.252,7.866-56.269,28.438-73.211,57.48
		c-19.362,33.882-24.807,76.841-13.311,117.984c18.151,67.764,74.421,113.143,133.716,113.143c0.605,0,0.605,0,1.211,0
		l-6.657,24.203c-1.21,4.237,0,8.472,3.024,11.495c2.421,2.423,5.445,3.631,8.473,3.631c1.209,0,1.812,0,3.023-0.603l17.546-4.843
		c6.052,63.53,53.851,65.95,88.943,67.765c12.706,0.605,24.201,1.212,34.486,4.234c9.075,2.423,20.572,7.869,23.599,20.572
		c3.025,12.104-3.632,26.624-16.941,38.725c-9.077,8.471-43.563,34.489-96.809,22.386c-39.327-8.469-53.848-29.646-67.765-50.824
		c-14.522-21.78-31.463-46.587-77.447-33.275c-6.656,1.814-10.286,8.469-8.47,15.126c1.814,6.654,8.47,10.286,15.126,8.469
		c29.042-8.469,35.698,1.212,50.219,23.599c14.522,21.175,33.884,50.219,82.892,60.504c11.497,2.421,21.783,3.632,32.069,3.632
		c46.587,0,76.84-23.598,86.52-31.464C422.925,460.99,432.002,437.393,427.162,416.82z M118.585,176.012
		c-9.681-35.093-5.445-71.396,11.496-100.438c13.312-22.992,33.883-39.329,58.085-45.984c7.866-1.814,15.732-3.026,23.597-3.026
		c48.405,0,94.993,38.724,110.725,94.993c9.681,35.093,5.443,71.396-11.495,100.438c-13.313,22.991-33.884,39.328-58.087,45.985
		C196.636,283.107,136.131,241.963,118.585,176.012z M256.537,292.182L256.537,292.182c0.603-0.605,1.814-0.605,2.42-0.605h0.605
		c0,0,0,0.605,0.605,0.605l9.681,9.075l-16.943,4.234L256.537,292.182z"/>
	<path fill="#A3A3A3" d="M260.168,113.692c1.814,4.84,6.654,7.261,10.89,7.261c1.814,0,3.025-0.605,4.843-1.211
		c6.049-2.42,9.074-9.681,6.049-15.731c-9.684-21.782-27.227-38.118-47.799-45.378c-6.657-1.816-13.312,1.21-15.126,7.866
		c-1.815,6.656,1.21,13.311,7.865,15.126C240.805,86.465,252.905,98.565,260.168,113.692z"/>
	<ellipse fill="#A3A3A3" cx="287.393" cy="159.07" rx="13.314" ry="12.706"/>
</g>
</svg>
