<?xml version="1.0" encoding="utf-8"?>
<!-- Generator: Adobe Illustrator 16.0.0, SVG Export Plug-In . SVG Version: 6.00 Build 0)  -->
<!DOCTYPE svg PUBLIC "-//W3C//DTD SVG 1.1//EN" "http://www.w3.org/Graphics/SVG/1.1/DTD/svg11.dtd">
<svg version="1.1" id="Livello_1" xmlns="http://www.w3.org/2000/svg" xmlns:xlink="http://www.w3.org/1999/xlink" x="0px" y="0px"
	 width="512px" height="512px" viewBox="0 0 512 512" enable-background="new 0 0 512 512" xml:space="preserve">
<path fill="#A3A3A3" d="M507.045,334.934c-5.431-4.229-12.677-3.021-16.902,2.412c-22.338,30.183-50.104,54.934-80.892,74.252
	v-57.349c0-6.642-5.435-12.075-12.073-12.075c-6.64,0-12.073,5.434-12.073,12.075v70.025c-9.658,4.83-19.921,9.056-30.184,12.676
	c-1.209-54.33-45.275-97.792-99.607-97.792c-53.727,0-97.795,42.257-99.605,95.38c-10.867-4.226-21.129-9.055-31.995-14.487V311.387
	c0-48.292,39.842-88.136,88.136-88.136h85.116l0,0c3.021,0,6.037-1.207,8.454-3.622c2.413-2.415,3.62-5.432,3.62-8.451
	c0-70.629,48.897-132.808,114.094-147.9V78.37c0,3.019,1.208,6.038,3.623,8.452l54.332,54.331c4.225,4.225,6.034,9.054,6.034,15.092
	c0,5.432-2.414,10.866-6.034,15.092c-8.453,8.451-21.734,8.451-30.184,0l-13.887-13.885c-2.414-2.415-6.034-3.622-9.657-3.622
	c-3.623,0.603-6.641,2.415-9.057,4.829c-21.732,32.598-33.2,69.423-33.2,108.057v38.033c0,6.638,5.434,12.071,12.073,12.071
	c6.639,0,12.073-5.434,12.073-12.071v-38.033c0-28.976,7.243-56.745,21.733-81.495l3.016,3.017
	c17.507,17.507,46.484,17.507,63.988,0c8.455-8.451,13.283-19.92,13.283-31.994c0-12.074-4.828-23.544-13.283-31.995l-50.706-50.709
	v-24.75c0-3.622-1.206-6.641-4.228-9.055c-2.412-2.415-6.036-3.622-9.658-3.018c-79.685,10.263-142.466,80.288-148.502,162.388
	h-73.649c-62.177,0-112.282,50.104-112.282,112.281v94.777c-27.769-18.11-52.521-41.651-73.044-68.818
	c-4.227-5.434-11.47-6.641-16.903-2.412c-5.432,4.225-6.64,11.466-2.415,16.899C66.968,432.12,158.726,478,258.332,478
	c99.605,0,191.364-45.88,251.127-126.167C513.685,346.399,512.479,339.158,507.045,334.934z M179.854,442.987
	c0-1.206,0-3.016,0-4.225c0-41.655,33.807-75.459,75.459-75.459s75.459,33.804,75.459,75.459c0,1.813,0,3.621-0.603,6.037
	c-22.942,6.036-47.691,9.055-71.838,9.055C231.167,453.854,205.209,450.233,179.854,442.987z"/>
</svg>
