<?xml version="1.0" encoding="utf-8"?>
<!-- Generator: Adobe Illustrator 16.0.0, SVG Export Plug-In . SVG Version: 6.00 Build 0)  -->
<!DOCTYPE svg PUBLIC "-//W3C//DTD SVG 1.1//EN" "http://www.w3.org/Graphics/SVG/1.1/DTD/svg11.dtd">
<svg version="1.1" id="Livello_1" xmlns="http://www.w3.org/2000/svg" xmlns:xlink="http://www.w3.org/1999/xlink" x="0px" y="0px"
	 width="478.73px" height="93.864px" viewBox="0 0 478.73 93.864" enable-background="new 0 0 478.73 93.864" xml:space="preserve">
<g>
	<g>
		<path fill="#FBA505" d="M11.977,78.301c0-21.679-0.454-44.352-3.084-65.307c-0.091-1.813,4.716-2.902,5.261,0.817l1.814,36.282
			c2.086-3.9,4.444-9.253,5.714-13.425c2.358-10.158,2.63-15.418,3.628-20.588c0.363-0.817,0.363-2.45,1.814-2.45
			c2.63,0.452,3.084,1.54,3.084,3.628c0,11.157-4.807,22.404-9.796,34.103l-0.998,2.358c14.149,9.89,17.596,21.407,19.41,29.934
			c0.544,2.719-1.451,2.813-2.54,2.813c-4.717,0-2.086-20.591-20.408-28.938c0,7.983,1.361,21.407,0.272,28.843
			c-0.091,0.547-0.363,0.636-0.816,0.636c-1.27,0-2.63-0.728-3.356-1.815V78.301z"/>
		<path fill="#FBA505" d="M47.804,18.347l3.991,55.329c0.182,1.723,0.454,3.174,0.454,4.809c-0.091,1.451-1.542,1.991-3.084,1.991
			c-1.996,0-2.358-1.72-2.63-3.442l-2.268-39.82c-0.454-6.53-1.451-13.061-1.27-19.592C43.087,15.356,47.623,16.17,47.804,18.347z"
			/>
		<path fill="#FBA505" d="M63.585,18.529c1.723-3.264,4.354-0.362,5.261,0.907c5.442,15.601,9.161,31.474,15.782,47.708
			l0.907-12.696c0.998-11.43,1.088-21.314,0.998-32.745c0.363-1.542,1.996-2.267,3.447-2.267c1.088,0,1.996,0.273,2.54,1.178
			c-1.632,19.592-2.358,40.457-2.993,61.313l-0.09,1.183c-0.182,0.452-1.361,1.72-2.177,1.72c-0.816,0-2.177-1.087-2.54-1.72
			c-5.624-16.962-11.973-33.56-17.415-50.613l-0.635,51.701c-2.086,4.717-5.261,2.27-5.352-0.455L63.585,18.529z"/>
		<path fill="#FBA505" d="M107.393,13.994h0.363c16.326,0.726,18.594,19.865,18.594,33.106c0,1.36-0.091,2.723-0.091,3.902
			c-0.453,17.233-5.351,31.109-20.771,31.109c-1.27,0-2.54-0.092-3.9-0.36c0,0,0.091-10.161,0.182-14.334
			c0.272-11.609,0.726-22.584,1.179-34.375c0.091-1.542,0.272-14.783,0.363-16.508l0.091-0.543
			C103.492,14.446,106.032,13.994,107.393,13.994z M106.395,78.121c0.726,0.089,0.907,0.089,0.998,0.089
			c11.519,0,13.424-19.408,13.787-26.848c0.454-8.524,0.091-31.2-12.698-32.289L106.395,78.121z"/>
		<path fill="#FBA505" d="M136.687,73.496V55.535c0-12.969-1.27-21.312-1.27-34.284v-4.628c14.512-1.178,16.145-0.179,16.145,1.814
			c0,0.636-0.453,1.998-1.088,2.269h-9.886c-0.635,0-0.635,0.455-0.635,0.726c0,9.614,0.907,16.689,1.452,26.576
			c1.36,0.364,8.979,0.092,10.521,0.092c3.084,0.089,5.17,5.353,0.998,5.353h-11.519l0.181,21.22
			c2.177,0.548,13.696-1.723,13.696,2.271c0,1.088-0.544,2.175-1.723,2.358h-0.454c-3.356,0.271-16.235,1.268-16.326-1.362
			L136.687,73.496z"/>
		<path fill="#FBA505" d="M165.619,46.647c0-2.814-0.454-19.319-0.635-23.583c0-0.907-0.544-8.889-0.635-9.885v-0.363
			c0-2.086,2.358-2.632,4.172-2.632c12.517,0,16.961,8.979,16.961,19.41c0,8.345-3.175,13.424-8.979,17.597
			c10.431,4.623,12.97,19.409,12.97,29.567c0,1.635-0.998,2.267-2.63,2.267c-1.088,0-1.542,0-1.995-1.451
			c-0.454-6.8-2.177-26.028-12.698-26.028c-0.091,0-0.726,0.092-0.907,0.092c-0.998,10.246-0.181,20.588-0.816,30.926
			c-1.179,1.635-3.719,1.727-4.807,0C165.71,77.122,165.71,52.089,165.619,46.647z M170.608,44.469
			c6.44-1.27,9.977-8.343,9.977-14.06c0-4.806-1.996-14.783-8.526-14.783c-0.363,0-3.175,0-3.175,0.726L170.608,44.469z"/>
	</g>
</g>
<g>
	<g>
		<path fill="#FBA505" d="M276.938,50.192c0-7.163,1.633-21.042,9.522-24.852c4.537-2.177,16.326-1.27,16.326,5.986
			c0,1.089-0.452,2.27-1.993,2.27c-3.265,0-4.445-4.902-9.07-4.902h-0.362c-8.437,0.455-9.888,13.153-9.888,19.954v1.815
			c0.454,9.07,0.454,15.785,2.358,24.309c0.906,4.262,3.354,8.799,8.617,8.799h0.452c8.256-0.455,8.526-11.249,8.256-16.418
			l-0.726-13.424c-2.632,0-5.264,0.724-8.166,0.455c-0.815-0.547-1.089-2.811-1.089-2.902c0-2.722,6.26-2.178,12.157-2.27
			c2.719,0.724,2.355,5.264,2.629,10.885v0.907c0.544,9.887,1.361,26.664-11.791,27.3c-0.634,0-1.181,0.092-1.814,0
			C280.114,88.833,276.938,73.869,276.938,50.192z"/>
		<path fill="#FBA505" d="M319.384,22.256c0.547-8.343,5.989-6.167,7.53,0c2.266,9.07,3.99,17.323,13.876,65.396
			c0,1.995-2.719,3.538-4.354,0.636l-3.266-16.326l-12.243,1.812c-0.726,4.262-1.359,12.336-1.544,16.146
			c-0.179,2.179-4.08,1.635-3.99,0L319.384,22.256z M321.108,64.523c-0.089,0.636-0.181,4.174-0.181,4.897l11.339-1.631
			l-8.892-40.361C323.013,32.959,321.382,58.899,321.108,64.523z"/>
		<path fill="#FBA505" d="M349.045,50.375c0-2.813-0.452-19.319-0.636-23.584c0-0.906-0.542-8.889-0.634-9.885v-0.363
			c0-2.087,2.358-2.63,4.172-2.63c12.517,0,16.963,8.977,16.963,19.41c0,8.343-3.176,13.424-8.981,17.596
			c10.433,4.625,12.972,19.408,12.972,29.566c0,1.635-0.999,2.267-2.631,2.267c-1.089,0-1.544,0-1.996-1.451
			c-0.452-6.8-2.177-26.028-12.698-26.028c-0.089,0-0.726,0.092-0.907,0.092c-0.996,10.246-0.181,20.588-0.817,30.929
			c-1.178,1.632-3.717,1.723-4.806,0C349.135,80.849,349.135,55.817,349.045,50.375z M354.035,48.197
			c6.438-1.27,9.975-8.344,9.975-14.06c0-4.806-1.993-14.783-8.523-14.783c-0.363,0-3.176,0-3.176,0.726L354.035,48.197z"/>
		<path fill="#FBA505" d="M383.782,47.925c0-6.984-0.089-24.58-0.182-24.672l-7.256-0.271c-2.902-0.817-3.991-3.628,0.455-4.716
			c7.072,0.181,13.966,0,21.313,0.544c4.083,0.364,3.81,4.897,1.181,4.897l-9.888-0.181c-0.093,0.089-0.455,28.844-0.634,40.544
			c0,3.719-0.363,10.702-0.363,15.056v1.179c-0.726,2.723-4.445,1.907-5.079-0.632C383.42,73.23,383.782,54.454,383.782,47.925z"/>
		<path fill="#FBA505" d="M411.629,77.223V59.262c0-12.969-1.27-21.312-1.27-34.284v-4.626c14.512-1.178,16.145-0.18,16.145,1.813
			c0,0.637-0.454,1.998-1.088,2.269h-9.888c-0.634,0-0.634,0.455-0.634,0.726c0,9.616,0.907,16.689,1.451,26.576
			c1.359,0.363,8.979,0.092,10.521,0.092c3.084,0.089,5.171,5.353,0.996,5.353h-11.518l0.182,21.22
			c2.177,0.547,13.697-1.72,13.697,2.271c0,1.087-0.547,2.175-1.725,2.358h-0.453c-3.356,0.271-16.236,1.268-16.326-1.362
			L411.629,77.223z"/>
		<path fill="#FBA505" d="M441.559,22.256c1.724-3.265,4.354-0.362,5.263,0.907c5.442,15.601,9.16,31.474,15.779,47.708l0.91-12.696
			c0.996-11.428,1.088-21.314,0.996-32.745c0.363-1.541,1.995-2.267,3.446-2.267c1.089,0,1.996,0.273,2.54,1.178
			c-1.633,19.592-2.358,40.457-2.992,61.313l-0.092,1.183c-0.182,0.455-1.359,1.72-2.177,1.72s-2.177-1.088-2.539-1.72
			c-5.624-16.962-11.973-33.56-17.415-50.612l-0.634,51.7c-2.088,4.717-5.264,2.27-5.353-0.456L441.559,22.256z"/>
	</g>
</g>
<path fill="#77C9BC" d="M254.846,71.355c-0.859-2.393-3.003-6.051-4.941-9.111c1.481-2.849,2.422-5.893,2.731-9.032
	c-0.509,0.028-1.015,0.044-1.522,0.044c-2.949,0-5.836-0.483-8.611-1.441c-1.641,2.567-3.86,4.527-6.5,5.738
	c-1.947,0.882-4.057,1.341-6.247,1.341c-8.001,0-16.159-6.067-20.286-15.089c-2.261-4.96-3.017-10.128-2.457-14.775
	c-9.106,4.192-15.603,11.739-17.452,20.222c-0.028,0.116-0.052,0.236-0.077,0.356c-0.046,0.231-0.089,0.462-0.129,0.692
	c-0.918,5.198-0.622,10.965-5.883,13.592c-1.101,0.553,1.662,2.652,2.741,2.115c1.587-0.794,2.674-2.046,3.49-3.326
	c1.127,16.174,19.478,29.022,19.478,29.022l10.176-8.077l-3.025-3.99c3.657,0.31,4.705,0.187,9.239-0.613
	c3.517-0.626,6.808-1.71,9.805-3.155l-2.057,7.828l14.251,5.1C247.571,88.797,256.565,76.158,254.846,71.355z"/>
<path fill="#77C9BC" d="M293.975,19.56c-1.009-5.732-4.655-10.632-10-13.46c-0.792-0.417-1.646-0.613-2.483-0.613
	c-1.916,0-3.766,1.027-4.722,2.839c-1.372,2.604-0.378,5.833,2.226,7.213c2.409,1.269,4.042,3.41,4.477,5.879
	c0.378,2.145-0.182,4.268-1.408,6.046c-0.316,0.12-0.675,0.218-1.094,0.276c-0.245,0.025-0.487,0.041-0.723,0.041
	c-2.512,0-4.313-1.769-5.355-3.98c-0.309-2.392-0.98-4.779-2.054-7.081c-4.07-8.735-12.727-13.866-21.769-13.866
	c-3.391,0-6.84,0.726-10.123,2.254c-3.102,1.447-5.741,3.478-7.872,5.892c-5.971,1.529-12.815,4.663-15.627,5.95
	c-4.207,1.922-6.898,6.022-7.828,11.007c-0.847,4.534-0.242,9.796,2.068,14.85c3.846,8.41,11.2,13.684,18.087,13.684
	c1.804,0,3.572-0.357,5.238-1.116c2.867-1.309,5.036-3.632,6.42-6.554c3.033,1.331,6.337,2.043,9.686,2.043
	c0.542,0,1.084-0.029,1.63-0.063c2.86-0.196,5.731-0.904,8.48-2.188c3.271-1.521,6.024-3.695,8.204-6.28
	c1.209,0.207,2.445,0.319,3.705,0.319s2.529-0.108,3.814-0.338C288.2,40.328,295.835,30.121,293.975,19.56z"/>
<g>
	<path fill="#FFFFFF" d="M229.169,43.849c-0.036,0-0.453-18.083-0.453-20.466c0-0.664-0.423-6.029-0.459-6.694v-0.245
		c0-0.278,0-0.386,0.247-0.628c0.104-0.039,0.525-0.072,0.666-0.072c0.631,0,0.91-0.035,1.121,0.736
		c0.317,1.368,0.178,2.207,0.213,3.573c0.174,7.151,0.244,14.402,0.663,21.625h0.248c1.472,0,2.872-0.49,4.379-0.49
		c0.562,0,1.19,0.139,1.19,0.839c0,0.386-0.209,0.7-0.7,0.771L229.169,43.849z"/>
	<path fill="#FFFFFF" d="M241.465,36.559l-0.209,0.213l-0.598,3.959c-0.072,0.523-0.036,2.031-1.048,2.031
		c-0.459,0-0.771-0.91-0.771-1.263c3.641-25.406,3.676-25.477,3.676-25.477c0.177-0.666,0.422-1.646,1.299-1.646
		c0.386,0,0.87,0.176,1.085,0.526l0.281,0.734c2.034,8.027,2.979,16.261,3.927,24.532l0.21,2.279c0,0.03-0.038,0.03-0.038,0.07
		c-0.243,0.664-0.384,0.945-1.053,0.945h-0.103c-0.209,0-0.563,0-0.598-0.247l-0.876-6.658H241.465z M241.991,34.389l4.38,0.104
		l-2.346-16.367L241.991,34.389z"/>
	<path fill="#FFFFFF" d="M258.979,19.39c0,1.819-0.7,3.467-1.889,4.798c3.994,2.491,5.57,5.471,5.57,10.167
		c0,5.009-2.77,9.282-8.271,9.282c-0.245,0-0.945-0.033-1.229-0.525c-0.386-5.395-0.386-10.759-0.909-17.101l-0.699-8.342v-0.733
		C253.828,14.341,258.979,15.078,258.979,19.39z M255.655,41.537c3.713,0,4.938-3.819,4.938-7.181c0-3.895-1.791-8.623-6.38-8.623
		c0,5.288,0.389,10.515,0.808,15.768C255.231,41.537,255.443,41.537,255.655,41.537z"/>
</g>
</svg>
