<?xml version="1.0" encoding="utf-8"?>
<!-- Generator: Adobe Illustrator 16.0.0, SVG Export Plug-In . SVG Version: 6.00 Build 0)  -->
<!DOCTYPE svg PUBLIC "-//W3C//DTD SVG 1.1//EN" "http://www.w3.org/Graphics/SVG/1.1/DTD/svg11.dtd">
<svg version="1.1" id="Livello_1" xmlns="http://www.w3.org/2000/svg" xmlns:xlink="http://www.w3.org/1999/xlink" x="0px" y="0px"
	 width="476.73px" height="93.864px" viewBox="-88.5 0 476.73 93.864" enable-background="new -88.5 0 476.73 93.864"
	 xml:space="preserve">
<g>
	<g>
		<path fill="#FFFFFF" d="M-79.769,78.384c0-21.736-0.455-44.471-3.092-65.481c-0.091-1.818,4.729-2.91,5.275,0.819l1.818,36.38
			c2.092-3.911,4.457-9.278,5.73-13.461c2.364-10.185,2.637-15.46,3.638-20.643c0.363-0.819,0.363-2.457,1.818-2.457
			c2.638,0.454,3.092,1.544,3.092,3.638c0,11.187-4.82,22.464-9.822,34.193l-1,2.365c14.188,9.915,17.644,21.464,19.462,30.013
			c0.545,2.727-1.455,2.821-2.546,2.821c-4.729,0-2.092-20.646-20.463-29.015c0,8.005,1.365,21.464,0.273,28.92
			c-0.091,0.548-0.365,0.637-0.819,0.637c-1.273,0-2.637-0.729-3.365-1.819V78.384z"/>
		<path fill="#FFFFFF" d="M-43.846,18.27l4.001,55.477c0.183,1.728,0.455,3.183,0.455,4.821c-0.091,1.455-1.546,1.997-3.092,1.997
			c-2.001,0-2.365-1.725-2.638-3.452l-2.273-39.926c-0.455-6.548-1.455-13.095-1.273-19.645
			C-48.576,15.271-44.029,16.087-43.846,18.27z"/>
		<path fill="#FFFFFF" d="M-28.023,18.452c1.728-3.273,4.365-0.363,5.275,0.91c5.456,15.642,9.185,31.558,15.824,47.836
			l0.909-12.731c1-11.46,1.091-21.371,1-32.832c0.364-1.545,2.001-2.273,3.456-2.273c1.091,0,2.001,0.274,2.546,1.181
			C-0.649,40.187-1.377,61.108-2.014,82.02l-0.09,1.186c-0.182,0.453-1.364,1.725-2.183,1.725c-0.818,0-2.183-1.091-2.546-1.725
			c-5.639-17.007-12.004-33.649-17.461-50.749l-0.636,51.839c-2.092,4.729-5.275,2.275-5.366-0.457L-28.023,18.452z"/>
		<path fill="#FFFFFF" d="M15.901,13.905h0.364c16.37,0.728,18.644,19.918,18.644,33.194c0,1.363-0.091,2.729-0.091,3.912
			c-0.454,17.279-5.365,31.192-20.826,31.192c-1.273,0-2.546-0.092-3.911-0.361c0,0,0.091-10.188,0.183-14.372
			c0.272-11.641,0.728-22.644,1.182-34.466c0.091-1.547,0.273-14.823,0.364-16.552l0.091-0.545
			C11.99,14.358,14.537,13.905,15.901,13.905z M14.901,78.204c0.728,0.089,0.909,0.089,1,0.089c11.55,0,13.46-19.461,13.824-26.92
			c0.455-8.547,0.091-31.283-12.732-32.375L14.901,78.204z"/>
		<path fill="#FFFFFF" d="M45.273,73.566V55.557c0-13.004-1.272-21.37-1.272-34.376v-4.641c14.551-1.181,16.188-0.179,16.188,1.819
			c0,0.637-0.454,2.003-1.091,2.274h-9.913c-0.637,0-0.637,0.457-0.637,0.728c0,9.64,0.91,16.734,1.456,26.647
			c1.364,0.365,9.003,0.092,10.549,0.092c3.092,0.089,5.184,5.367,1.001,5.367h-11.55l0.181,21.276
			c2.183,0.549,13.732-1.728,13.732,2.276c0,1.091-0.545,2.181-1.728,2.365h-0.455c-3.365,0.272-16.278,1.271-16.37-1.367
			L45.273,73.566z"/>
		<path fill="#FFFFFF" d="M74.283,46.646c0-2.821-0.455-19.37-0.637-23.646c0-0.91-0.546-8.913-0.636-9.911v-0.365
			c0-2.092,2.364-2.639,4.183-2.639c12.551,0,17.007,9.002,17.007,19.462c0,8.367-3.183,13.459-9.003,17.644
			c10.458,4.635,13.005,19.461,13.005,29.646c0,1.639-1,2.272-2.637,2.272c-1.091,0-1.546,0-2-1.455
			c-0.455-6.818-2.183-26.098-12.732-26.098c-0.091,0-0.728,0.092-0.91,0.092c-1,10.273-0.181,20.643-0.818,31.008
			c-1.183,1.64-3.729,1.731-4.82,0C74.374,77.202,74.374,52.102,74.283,46.646z M79.285,44.461
			c6.458-1.272,10.004-8.365,10.004-14.097c0-4.818-2.001-14.823-8.549-14.823c-0.364,0-3.184,0-3.184,0.728L79.285,44.461z"/>
	</g>
</g>
<g>
	<g>
		<path fill="#FFFFFF" d="M185.899,50.2c0-7.182,1.638-21.098,9.548-24.918c4.549-2.183,16.37-1.273,16.37,6.002
			c0,1.092-0.453,2.276-1.999,2.276c-3.272,0-4.457-4.915-9.095-4.915h-0.362c-8.459,0.457-9.914,13.188-9.914,20.008v1.819
			c0.455,9.095,0.455,15.828,2.364,24.374c0.908,4.273,3.363,8.822,8.64,8.822h0.454c8.278-0.457,8.549-11.278,8.278-16.462
			l-0.728-13.459c-2.64,0-5.278,0.726-8.188,0.456c-0.817-0.549-1.092-2.818-1.092-2.91c0-2.729,6.276-2.184,12.19-2.276
			c2.726,0.727,2.361,5.278,2.636,10.915v0.909c0.545,9.913,1.364,26.735-11.822,27.373c-0.636,0-1.185,0.092-1.82,0
			C189.084,88.943,185.899,73.94,185.899,50.2z"/>
		<path fill="#FFFFFF" d="M228.458,22.189c0.549-8.366,6.006-6.183,7.551,0c2.271,9.095,4.001,17.37,13.913,65.572
			c0,2-2.727,3.547-4.365,0.637l-3.274-16.37l-12.275,1.816c-0.728,4.273-1.363,12.369-1.549,16.189c-0.179,2.184-4.091,1.639-4,0
			L228.458,22.189z M230.188,64.57c-0.089,0.637-0.181,4.184-0.181,4.91l11.369-1.636l-8.916-40.469
			C232.098,32.921,230.462,58.93,230.188,64.57z"/>
		<path fill="#FFFFFF" d="M258.198,50.383c0-2.82-0.453-19.37-0.637-23.646c0-0.908-0.544-8.913-0.636-9.911v-0.364
			c0-2.092,2.365-2.638,4.183-2.638c12.55,0,17.009,9.001,17.009,19.462c0,8.366-3.185,13.46-9.006,17.644
			c10.461,4.638,13.006,19.46,13.006,29.646c0,1.639-1.001,2.272-2.637,2.272c-1.093,0-1.549,0-2.002-1.455
			c-0.453-6.818-2.183-26.098-12.732-26.098c-0.089,0-0.728,0.092-0.91,0.092c-0.998,10.273-0.18,20.643-0.819,31.012
			c-1.181,1.636-3.726,1.728-4.818,0C258.289,80.939,258.289,55.839,258.198,50.383z M263.202,48.2
			c6.456-1.273,10.002-8.366,10.002-14.098c0-4.818-1.999-14.823-8.547-14.823c-0.364,0-3.184,0-3.184,0.728L263.202,48.2z"/>
		<path fill="#FFFFFF" d="M293.028,47.927c0-7.003-0.089-24.646-0.182-24.738l-7.275-0.272c-2.91-0.819-4.002-3.638,0.456-4.728
			c7.092,0.181,14.004,0,21.371,0.545c4.094,0.365,3.819,4.911,1.184,4.911l-9.914-0.181c-0.094,0.088-0.456,28.92-0.636,40.652
			c0,3.729-0.364,10.73-0.364,15.096v1.183c-0.728,2.729-4.457,1.911-5.093-0.634C292.666,73.299,293.028,54.473,293.028,47.927z"/>
		<path fill="#FFFFFF" d="M320.949,77.303V59.294c0-13.004-1.272-21.369-1.272-34.376v-4.639c14.55-1.181,16.188-0.181,16.188,1.818
			c0,0.639-0.455,2.003-1.091,2.274h-9.914c-0.635,0-0.635,0.457-0.635,0.728c0,9.641,0.909,16.734,1.455,26.647
			c1.362,0.365,9.002,0.092,10.549,0.092c3.093,0.089,5.185,5.367,0.999,5.367H325.68l0.182,21.276
			c2.183,0.549,13.734-1.724,13.734,2.276c0,1.091-0.549,2.181-1.729,2.365h-0.455c-3.365,0.272-16.279,1.271-16.369-1.366
			L320.949,77.303z"/>
		<path fill="#FFFFFF" d="M350.96,22.189c1.728-3.273,4.364-0.363,5.276,0.91c5.457,15.642,9.185,31.558,15.821,47.836l0.913-12.731
			c0.998-11.458,1.09-21.371,0.998-32.832c0.364-1.545,2-2.273,3.455-2.273c1.092,0,2.002,0.274,2.547,1.181
			c-1.637,19.645-2.364,40.565-3,61.478l-0.092,1.186c-0.183,0.457-1.363,1.725-2.183,1.725s-2.183-1.091-2.546-1.725
			c-5.639-17.007-12.004-33.649-17.461-50.747l-0.636,51.838c-2.094,4.729-5.278,2.275-5.367-0.457L350.96,22.189z"/>
	</g>
</g>
<path fill="#FFFFFF" d="M163.748,71.419c-0.862-2.399-3.012-6.067-4.955-9.136c1.485-2.856,2.429-5.908,2.739-9.057
	c-0.511,0.028-1.018,0.045-1.526,0.045c-2.957,0-5.852-0.485-8.635-1.446c-1.645,2.574-3.871,4.54-6.517,5.754
	c-1.952,0.885-4.068,1.344-6.264,1.344c-8.022,0-16.202-6.083-20.34-15.129c-2.268-4.974-3.025-10.155-2.464-14.815
	c-9.13,4.203-15.645,11.77-17.498,20.276c-0.028,0.117-0.053,0.237-0.077,0.358c-0.046,0.231-0.089,0.463-0.129,0.694
	c-0.921,5.211-0.624,10.993-5.899,13.627c-1.104,0.555,1.667,2.66,2.749,2.121c1.591-0.796,2.681-2.051,3.5-3.335
	c1.13,16.218,19.53,29.101,19.53,29.101l10.203-8.1l-3.033-4c3.667,0.311,4.718,0.187,9.264-0.615
	c3.526-0.628,6.826-1.715,9.831-3.164l-2.062,7.85l14.29,5.112C156.454,88.909,165.473,76.235,163.748,71.419z"/>
<g>
	<polygon fill="#FFFFFF" points="150.859,34.354 155.251,34.458 152.898,18.048 	"/>
	<path fill="#FFFFFF" d="M163.114,25.675c0,5.302,0.39,10.543,0.81,15.81c0.211,0.037,0.424,0.037,0.636,0.037
		c3.724,0,4.951-3.83,4.951-7.201C169.511,30.416,167.715,25.675,163.114,25.675z"/>
	<path fill="#FFFFFF" d="M202.981,19.485c-1.012-5.747-4.668-10.661-10.027-13.496c-0.794-0.418-1.649-0.615-2.489-0.615
		c-1.921,0-3.775,1.03-4.734,2.846c-1.376,2.611-0.379,5.849,2.231,7.232c2.415,1.273,4.053,3.419,4.488,5.895
		c0.379,2.151-0.182,4.28-1.412,6.063c-0.316,0.121-0.677,0.219-1.097,0.277c-0.246,0.025-0.488,0.042-0.725,0.042
		c-2.519,0-4.323-1.774-5.369-3.991c-0.31-2.398-0.983-4.792-2.06-7.099c-4.081-8.758-12.761-13.903-21.826-13.903
		c-3.4,0-6.858,0.728-10.15,2.26c-3.11,1.45-5.757,3.487-7.894,5.907c-5.986,1.533-12.849,4.676-15.669,5.966
		c-4.218,1.927-6.917,6.039-7.849,11.036c-0.85,4.546-0.243,9.822,2.073,14.889c3.856,8.433,11.23,13.72,18.136,13.72
		c1.808,0,3.581-0.357,5.251-1.119c2.875-1.312,5.049-3.642,6.438-6.571c3.042,1.335,6.354,2.048,9.711,2.048
		c0.544,0,1.088-0.028,1.635-0.063c2.868-0.196,5.747-0.906,8.503-2.193c3.279-1.524,6.041-3.705,8.227-6.296
		c1.212,0.208,2.451,0.32,3.715,0.32s2.536-0.108,3.824-0.339C197.191,40.309,204.847,30.075,202.981,19.485z M145.136,42.786
		l-7.134,1.054c-0.036,0-0.454-18.132-0.454-20.521c0-0.666-0.424-6.045-0.46-6.712v-0.246c0-0.279,0-0.387,0.247-0.629
		c0.104-0.04,0.527-0.073,0.667-0.073c0.633,0,0.912-0.035,1.124,0.739c0.318,1.371,0.179,2.212,0.214,3.582
		c0.174,7.17,0.245,14.44,0.665,21.683h0.248c1.476,0,2.88-0.492,4.392-0.492c0.563,0,1.193,0.14,1.193,0.842
		C145.838,42.399,145.628,42.715,145.136,42.786z M158.166,42.506c-0.244,0.666-0.386,0.948-1.056,0.948h-0.104
		c-0.209,0-0.563,0-0.599-0.248l-0.878-6.676h-5.199l-0.209,0.214l-0.6,3.971c-0.072,0.524-0.036,2.037-1.051,2.037
		c-0.46,0-0.773-0.913-0.773-1.267c3.651-25.474,3.686-25.545,3.686-25.545c0.178-0.667,0.423-1.65,1.303-1.65
		c0.387,0,0.872,0.176,1.087,0.528l0.282,0.735c2.04,8.048,2.988,16.305,3.938,24.597l0.211,2.286
		C158.204,42.466,158.166,42.466,158.166,42.506z M163.292,43.628c-0.246,0-0.948-0.033-1.233-0.526
		c-0.387-5.41-0.387-10.788-0.911-17.146l-0.701-8.364v-0.735c2.281-2.603,7.446-1.864,7.446,2.46c0,1.824-0.702,3.476-1.894,4.811
		c4.005,2.498,5.585,5.485,5.585,10.194C171.584,39.344,168.808,43.628,163.292,43.628z"/>
</g>
</svg>
